<svg xmlns="http://www.w3.org/2000/svg" version="1.1" xmlns:xlink="http://www.w3.org/1999/xlink" xmlns:svgjs="http://svgjs.dev/svgjs" viewBox="0 0 1422 800" id="qqquad"><g shape-rendering="crispEdges" stroke-linejoin="round" fill="none" stroke-width="2" stroke="hsl(220, 73%, 26%)"><polygon points="1422,100 1244.25,100 1244.25,0"></polygon><polygon points="1066.5,100 1244.25,0 1244.25,100"></polygon><polygon points="1066.5,200 1066.5,100 1244.25,100"></polygon><polygon points="1422,100 1244.25,200 1244.25,100"></polygon><polygon points="1066.5,100 1066.5,0 888.75,100"></polygon><polygon points="711,100 888.75,0 711,0"></polygon><polygon points="888.75,200 711,200 711,100"></polygon><polygon points="888.75,100 888.75,200 1066.5,200"></polygon><polygon points="888.75,200 1066.5,200 888.75,300"></polygon><polygon points="888.75,300 888.75,200 711,300"></polygon><polygon points="888.75,400 888.75,300 711,300"></polygon><polygon points="1066.5,300 1066.5,400 888.75,300"></polygon><polygon points="1244.25,300 1422,300 1244.25,200"></polygon><polygon points="1066.5,200 1066.5,300 1244.25,300"></polygon><polygon points="1066.5,400 1244.25,400 1066.5,300"></polygon><polygon points="1422,400 1244.25,300 1244.25,400"></polygon><polygon points="711,0 533.25,0 711,100"></polygon><polygon points="533.25,0 355.5,0 533.25,100"></polygon><polygon points="355.5,100 533.25,200 355.5,200"></polygon><polygon points="711,200 711,100 533.25,200"></polygon><polygon points="355.5,0 355.5,100 177.75,0"></polygon><polygon points="177.75,100 0,0 177.75,0"></polygon><polygon points="177.75,200 177.75,100 0,200"></polygon><polygon points="177.75,100 355.5,200 177.75,200"></polygon><polygon points="355.5,200 355.5,300 177.75,300"></polygon><polygon points="177.75,200 177.75,300 0,300"></polygon><polygon points="177.75,400 0,300 0,400"></polygon><polygon points="355.5,400 177.75,300 355.5,300"></polygon><polygon points="711,200 533.25,200 533.25,300"></polygon><polygon points="533.25,200 533.25,300 355.5,300"></polygon><polygon points="355.5,300 533.25,400 355.5,400"></polygon><polygon points="711,400 533.25,300 533.25,400"></polygon><polygon points="711,500 533.25,400 533.25,500"></polygon><polygon points="444.375,400 533.25,450 533.25,400"></polygon><polygon points="444.375,400 444.375,450 355.5,400"></polygon><polygon points="444.375,450 444.375,500 355.5,450"></polygon><polygon points="533.25,450 444.375,450 533.25,500"></polygon><polygon points="355.5,600 533.25,500 533.25,600"></polygon><polygon points="711,600 533.25,500 533.25,600"></polygon><polygon points="355.5,500 177.75,500 177.75,400"></polygon><polygon points="0,500 177.75,400 0,400"></polygon><polygon points="177.75,600 177.75,500 0,500"></polygon><polygon points="355.5,550 266.625,500 266.625,550"></polygon><polygon points="266.625,550 177.75,550 266.625,500"></polygon><polygon points="266.625,600 177.75,550 177.75,600"></polygon><polygon points="355.5,600 266.625,600 266.625,550"></polygon><polygon points="0,600 355.5,600 0,800"></polygon><polygon points="622.125,600 711,650 711,600"></polygon><polygon points="533.25,650 622.125,650 622.125,600"></polygon><polygon points="533.25,650 622.125,700 622.125,650"></polygon><polygon points="711,650 711,700 622.125,650"></polygon><polygon points="533.25,650 533.25,600 444.375,600"></polygon><polygon points="444.375,600 355.5,650 444.375,650"></polygon><polygon points="444.375,650 444.375,700 355.5,650"></polygon><polygon points="533.25,700 533.25,650 444.375,650"></polygon><polygon points="355.5,800 355.5,700 533.25,700"></polygon><polygon points="533.25,800 711,700 533.25,700"></polygon><polygon points="1422,500 1244.25,500 1244.25,400"></polygon><polygon points="1066.5,500 1066.5,400 1244.25,400"></polygon><polygon points="1244.25,600 1066.5,600 1066.5,500"></polygon><polygon points="1244.25,500 1422,500 1422,600"></polygon><polygon points="1066.5,500 1066.5,400 888.75,500"></polygon><polygon points="888.75,500 711,500 888.75,400"></polygon><polygon points="888.75,500 888.75,600 711,500"></polygon><polygon points="1066.5,600 888.75,500 1066.5,500"></polygon><polygon points="1066.5,700 1066.5,600 888.75,600"></polygon><polygon points="711,700 711,600 888.75,600"></polygon><polygon points="888.75,800 711,700 711,800"></polygon><polygon points="1066.5,800 1066.5,700 888.75,700"></polygon><polygon points="1244.25,700 1422,700 1244.25,600"></polygon><polygon points="1244.25,700 1244.25,600 1066.5,600"></polygon><polygon points="1066.5,800 1244.25,700 1244.25,800"></polygon><polygon points="1244.25,800 1422,700 1422,800"></polygon></g><g fill="hsl(220, 62%, 45%)" stroke-width="3" stroke="hsl(220, 43%, 13%)"></g></svg>